<svg width="204" height="42" viewBox="0 0 204 42" fill="none" xmlns="http://www.w3.org/2000/svg">
<path d="M79.84 15.912H79.68L77.92 19.528L73.024 28.456L68.128 19.528L66.368 15.912H66.208V33H62.752V10.664H67.04L73.024 22.024H73.216L79.2 10.664H83.296V33H79.84V15.912ZM95.0865 33.384C93.9345 33.384 92.8785 33.1813 91.9185 32.776C90.9798 32.3707 90.1798 31.7947 89.5185 31.048C88.8572 30.28 88.3452 29.3627 87.9825 28.296C87.6198 27.208 87.4385 26.0027 87.4385 24.68C87.4385 23.3573 87.6198 22.1627 87.9825 21.096C88.3452 20.008 88.8572 19.0907 89.5185 18.344C90.1798 17.576 90.9798 16.9893 91.9185 16.584C92.8785 16.1787 93.9345 15.976 95.0865 15.976C96.2385 15.976 97.2838 16.1787 98.2225 16.584C99.1825 16.9893 99.9932 17.576 100.655 18.344C101.316 19.0907 101.828 20.008 102.191 21.096C102.553 22.1627 102.735 23.3573 102.735 24.68C102.735 26.0027 102.553 27.208 102.191 28.296C101.828 29.3627 101.316 30.28 100.655 31.048C99.9932 31.7947 99.1825 32.3707 98.2225 32.776C97.2838 33.1813 96.2385 33.384 95.0865 33.384ZM95.0865 30.504C96.2812 30.504 97.2412 30.1413 97.9665 29.416C98.6918 28.6693 99.0545 27.56 99.0545 26.088V23.272C99.0545 21.8 98.6918 20.7013 97.9665 19.976C97.2412 19.2293 96.2812 18.856 95.0865 18.856C93.8918 18.856 92.9318 19.2293 92.2065 19.976C91.4812 20.7013 91.1185 21.8 91.1185 23.272V26.088C91.1185 27.56 91.4812 28.6693 92.2065 29.416C92.9318 30.1413 93.8918 30.504 95.0865 30.504ZM109.987 33L104.323 16.36H107.779L110.307 23.944L112.003 29.768H112.195L113.891 23.944L116.483 16.36H119.811L114.083 33H109.987ZM124.506 13.384C123.781 13.384 123.247 13.2133 122.906 12.872C122.586 12.5307 122.426 12.0933 122.426 11.56V11.016C122.426 10.4827 122.586 10.0453 122.906 9.704C123.247 9.36267 123.781 9.192 124.506 9.192C125.231 9.192 125.754 9.36267 126.074 9.704C126.394 10.0453 126.554 10.4827 126.554 11.016V11.56C126.554 12.0933 126.394 12.5307 126.074 12.872C125.754 13.2133 125.231 13.384 124.506 13.384ZM122.746 16.36H126.234V33H122.746V16.36ZM137.743 33.384C136.548 33.384 135.481 33.1813 134.543 32.776C133.604 32.3707 132.804 31.7947 132.143 31.048C131.481 30.28 130.969 29.3627 130.607 28.296C130.265 27.208 130.095 26.0027 130.095 24.68C130.095 23.3573 130.265 22.1627 130.607 21.096C130.969 20.008 131.481 19.0907 132.143 18.344C132.804 17.576 133.604 16.9893 134.543 16.584C135.481 16.1787 136.548 15.976 137.743 15.976C138.959 15.976 140.025 16.1893 140.943 16.616C141.881 17.0427 142.66 17.64 143.279 18.408C143.897 19.1547 144.356 20.0293 144.655 21.032C144.975 22.0347 145.135 23.112 145.135 24.264V25.576H133.711V26.12C133.711 27.4 134.084 28.456 134.831 29.288C135.599 30.0987 136.687 30.504 138.095 30.504C139.119 30.504 139.983 30.28 140.687 29.832C141.391 29.384 141.988 28.776 142.479 28.008L144.527 30.024C143.908 31.048 143.012 31.8693 141.839 32.488C140.665 33.0853 139.3 33.384 137.743 33.384ZM137.743 18.696C137.145 18.696 136.591 18.8027 136.079 19.016C135.588 19.2293 135.161 19.528 134.799 19.912C134.457 20.296 134.191 20.7547 133.999 21.288C133.807 21.8213 133.711 22.408 133.711 23.048V23.272H141.455V22.952C141.455 21.672 141.124 20.648 140.463 19.88C139.801 19.0907 138.895 18.696 137.743 18.696ZM155.628 33.384C153.75 33.384 152.15 33.0427 150.828 32.36C149.526 31.6773 148.406 30.76 147.468 29.608L149.964 27.272C150.753 28.232 151.617 28.9573 152.556 29.448C153.516 29.9387 154.604 30.184 155.82 30.184C157.249 30.184 158.326 29.864 159.052 29.224C159.777 28.584 160.14 27.72 160.14 26.632C160.14 25.7573 159.884 25.064 159.372 24.552C158.86 24.04 157.953 23.656 156.652 23.4L154.668 23.048C152.492 22.6427 150.86 21.928 149.772 20.904C148.684 19.88 148.14 18.472 148.14 16.68C148.14 15.6987 148.321 14.8133 148.684 14.024C149.068 13.2133 149.59 12.5413 150.252 12.008C150.934 11.4533 151.756 11.0267 152.716 10.728C153.676 10.4293 154.753 10.28 155.948 10.28C157.633 10.28 159.094 10.5787 160.332 11.176C161.569 11.752 162.625 12.5947 163.5 13.704L160.972 15.944C160.396 15.1973 159.692 14.6 158.86 14.152C158.028 13.704 156.993 13.48 155.756 13.48C154.476 13.48 153.484 13.736 152.78 14.248C152.076 14.76 151.724 15.5067 151.724 16.488C151.724 17.4267 152.012 18.1307 152.588 18.6C153.164 19.048 154.06 19.3893 155.276 19.624L157.26 20.04C159.5 20.4667 161.132 21.192 162.156 22.216C163.201 23.24 163.724 24.648 163.724 26.44C163.724 27.4853 163.542 28.4347 163.18 29.288C162.817 30.1413 162.284 30.8773 161.58 31.496C160.897 32.0933 160.054 32.5627 159.052 32.904C158.049 33.224 156.908 33.384 155.628 33.384ZM169.569 13.384C168.843 13.384 168.31 13.2133 167.969 12.872C167.649 12.5307 167.489 12.0933 167.489 11.56V11.016C167.489 10.4827 167.649 10.0453 167.969 9.704C168.31 9.36267 168.843 9.192 169.569 9.192C170.294 9.192 170.817 9.36267 171.137 9.704C171.457 10.0453 171.617 10.4827 171.617 11.016V11.56C171.617 12.0933 171.457 12.5307 171.137 12.872C170.817 13.2133 170.294 13.384 169.569 13.384ZM167.809 16.36H171.297V33H167.809V16.36ZM180.885 33C179.669 33 178.752 32.6907 178.133 32.072C177.515 31.432 177.205 30.536 177.205 29.384V19.208H174.613V16.36H176.021C176.597 16.36 176.992 16.232 177.205 15.976C177.44 15.72 177.557 15.304 177.557 14.728V11.816H180.693V16.36H184.181V19.208H180.693V30.152H183.925V33H180.885ZM194.368 33.384C193.173 33.384 192.106 33.1813 191.168 32.776C190.229 32.3707 189.429 31.7947 188.768 31.048C188.106 30.28 187.594 29.3627 187.232 28.296C186.89 27.208 186.72 26.0027 186.72 24.68C186.72 23.3573 186.89 22.1627 187.232 21.096C187.594 20.008 188.106 19.0907 188.768 18.344C189.429 17.576 190.229 16.9893 191.168 16.584C192.106 16.1787 193.173 15.976 194.368 15.976C195.584 15.976 196.65 16.1893 197.568 16.616C198.506 17.0427 199.285 17.64 199.904 18.408C200.522 19.1547 200.981 20.0293 201.28 21.032C201.6 22.0347 201.76 23.112 201.76 24.264V25.576H190.336V26.12C190.336 27.4 190.709 28.456 191.456 29.288C192.224 30.0987 193.312 30.504 194.72 30.504C195.744 30.504 196.608 30.28 197.312 29.832C198.016 29.384 198.613 28.776 199.104 28.008L201.152 30.024C200.533 31.048 199.637 31.8693 198.464 32.488C197.29 33.0853 195.925 33.384 194.368 33.384ZM194.368 18.696C193.77 18.696 193.216 18.8027 192.704 19.016C192.213 19.2293 191.786 19.528 191.424 19.912C191.082 20.296 190.816 20.7547 190.624 21.288C190.432 21.8213 190.336 22.408 190.336 23.048V23.272H198.08V22.952C198.08 21.672 197.749 20.648 197.088 19.88C196.426 19.0907 195.52 18.696 194.368 18.696Z" fill="black"/>
<path d="M38.4567 12.6322V26.5744L10.5878 29.3555V37.1622L49.0444 41V11.5878L38.4567 12.6322Z" fill="#54C8E8"/>
<path d="M38.4567 12.6322V4.79333L0 1V30.4122L10.5878 29.3556V15.3811L38.4567 12.6322Z" fill="#FFA400"/>
<path d="M38.4567 12.6322L10.5878 15.3811V29.3556L38.4567 26.5745V12.6322Z" fill="#E43D30"/>
</svg>
